<?xml version="1.0" standalone="no"?>
<!DOCTYPE svg PUBLIC "-//W3C//DTD SVG 1.0//EN" "http://www.w3.org/TR/2001/REC-SVG-20010904/DTD/svg10.dtd">
<svg xmlns="http://www.w3.org/2000/svg" xmlns:xlink="http://www.w3.org/1999/xlink" id="body_1" width="63" height="69">

<g transform="matrix(0.019873273 0 0 0.019873273 0.38839245 -0)">
	<g>
		<g>
            <path d="M1566 2419C 1856 2419 2092 2655 2092 2945C 2092 3236 1856 3472 1566 3472C 1275 3472 1039 3236 1039 2945C 1039 2655 1275 2419 1566 2419z" stroke="none" fill="#DB292F" fill-rule="nonzero" fill-opacity="0.7019608" />
            <path d="M480 2065L2651 2065L2651 641C 2651 549 2575 474 2483 474L2483 474L647 474C 556 474 480 550 480 641L480 641L480 2065z" stroke="none" fill="#FFFFFF" fill-rule="nonzero" />
            <path d="M539 2007L2592 2007L2592 641C 2592 611 2579 584 2560 564C 2540 544 2513 532 2483 532L2483 532L647 532C 618 532 591 544 571 564C 552 584 539 611 539 641L539 641L539 2007zM2651 2123L480 2123L421 2123L421 2065L421 641C 421 580 447 524 488 483C 529 442 585 417 647 417L647 417L2483 417C 2546 417 2602 442 2643 483C 2684 524 2710 580 2710 641L2710 641L2710 2065L2710 2123L2651 2123z" stroke="none" fill="#1A1A1A" fill-rule="nonzero" />
            <path d="M992 2049L2139 2049L2139 239C 2139 147 2064 72 1972 72L1972 72L1159 72C 1067 72 992 147 992 239L992 239L992 2049z" stroke="none" fill="#FFFFFF" fill-rule="nonzero" />
            <path d="M1054 1977L2077 1977L2077 239C 2077 215 2066 192 2049 175C 2030 156 2003 144 1972 144L1972 144L1159 144C 1128 144 1101 156 1082 175C 1065 192 1054 215 1054 239L1054 239L1054 1977zM2139 2120L992 2120L929 2120L929 2049L929 239C 929 171 956 110 1000 67C 1041 26 1097 0 1159 0L1159 0L1972 0C 2034 0 2090 26 2131 67C 2175 110 2202 171 2202 239L2202 239L2202 2049L2202 2120L2139 2120z" stroke="none" fill="#1A1A1A" fill-rule="nonzero" />
			<g>
                <path d="M1810 2111L1321 2111L1321 1986L1810 1986L1872 2049L1810 2111zM1872 1565L1872 2049L1747 2049L1747 1565L1872 1565zM1721 1539L1721 1414L1729 1414L1737 1415L1744 1416L1752 1417L1759 1419L1766 1421L1773 1423L1780 1426L1787 1429L1793 1433L1800 1436L1806 1440L1812 1444L1817 1449L1823 1454L1828 1459L1833 1464L1838 1469L1842 1475L1846 1481L1850 1487L1854 1493L1857 1500L1860 1507L1863 1513L1865 1520L1868 1528L1869 1535L1871 1542L1872 1550L1872 1558L1872 1565L1747 1565L1747 1564L1747 1563L1747 1561L1747 1560L1746 1559L1746 1558L1746 1557L1745 1555L1745 1554L1744 1553L1744 1552L1743 1551L1742 1550L1741 1549L1740 1548L1740 1547L1739 1546L1738 1545L1737 1544L1736 1544L1734 1543L1733 1542L1732 1542L1731 1541L1730 1541L1729 1540L1728 1540L1726 1540L1725 1540L1724 1539L1723 1539L1721 1539zM1410 1414L1721 1414L1721 1539L1410 1539L1410 1414zM1384 1565L1259 1565L1259 1558L1259 1550L1260 1542L1262 1535L1263 1528L1266 1520L1268 1513L1271 1507L1274 1500L1277 1493L1281 1487L1285 1481L1289 1475L1293 1469L1298 1464L1303 1459L1308 1454L1314 1449L1319 1444L1325 1440L1331 1436L1338 1433L1344 1429L1351 1426L1358 1423L1365 1421L1372 1419L1379 1417L1387 1416L1394 1415L1402 1414L1410 1414L1410 1539L1408 1539L1407 1539L1406 1540L1405 1540L1403 1540L1402 1540L1401 1541L1400 1541L1399 1542L1398 1542L1397 1543L1395 1544L1394 1544L1393 1545L1392 1546L1391 1547L1391 1548L1390 1549L1389 1550L1388 1551L1388 1552L1387 1553L1386 1554L1386 1555L1385 1557L1385 1558L1385 1559L1384 1560L1384 1561L1384 1563L1384 1564L1384 1565zM1259 2049L1259 1565L1384 1565L1384 2049L1321 2111L1259 2049z" stroke="none" fill="#1A1A1A" fill-rule="nonzero" />
			</g>
            <path d="M1155 1073C 1155 1048.6995 1174.6995 1029 1199 1029L1199 1029L1311 1029C 1335.3005 1029 1355 1048.6995 1355 1073L1355 1073L1355 1185C 1355 1209.3005 1335.3005 1229 1311 1229L1311 1229L1199 1229C 1174.6995 1229 1155 1209.3005 1155 1185L1155 1185L1155 1073z" stroke="none" fill="#1A1A1A" fill-rule="nonzero" />
            <path d="M1465 1073C 1465 1048.6995 1484.6995 1029 1509 1029L1509 1029L1621 1029C 1645.3005 1029 1665 1048.6995 1665 1073L1665 1073L1665 1185C 1665 1209.3005 1645.3005 1229 1621 1229L1621 1229L1509 1229C 1484.6995 1229 1465 1209.3005 1465 1185L1465 1185L1465 1073z" stroke="none" fill="#1A1A1A" fill-rule="nonzero" />
            <path d="M1776 1073C 1776 1048.6995 1795.6995 1029 1820 1029L1820 1029L1932 1029C 1956.3005 1029 1976 1048.6995 1976 1073L1976 1073L1976 1185C 1976 1209.3005 1956.3005 1229 1932 1229L1932 1229L1820 1229C 1795.6995 1229 1776 1209.3005 1776 1185L1776 1185L1776 1073z" stroke="none" fill="#1A1A1A" fill-rule="nonzero" />
            <path d="M1155 740C 1155 715.69946 1174.6995 696 1199 696L1199 696L1311 696C 1335.3005 696 1355 715.69946 1355 740L1355 740L1355 852C 1355 876.30054 1335.3005 896 1311 896L1311 896L1199 896C 1174.6995 896 1155 876.30054 1155 852L1155 852L1155 740z" stroke="none" fill="#1A1A1A" fill-rule="nonzero" />
            <path d="M1465 740C 1465 715.69946 1484.6995 696 1509 696L1509 696L1621 696C 1645.3005 696 1665 715.69946 1665 740L1665 740L1665 852C 1665 876.30054 1645.3005 896 1621 896L1621 896L1509 896C 1484.6995 896 1465 876.30054 1465 852L1465 852L1465 740z" stroke="none" fill="#1A1A1A" fill-rule="nonzero" />
            <path d="M1776 740C 1776 715.69946 1795.6995 696 1820 696L1820 696L1932 696C 1956.3005 696 1976 715.69946 1976 740L1976 740L1976 852C 1976 876.30054 1956.3005 896 1932 896L1932 896L1820 896C 1795.6995 896 1776 876.30054 1776 852L1776 852L1776 740z" stroke="none" fill="#1A1A1A" fill-rule="nonzero" />
            <path d="M1566 2877C 1812 2877 2035 2865 2195 2846C 2332 2830 2416 2815 2416 2806C 2416 2796 2332 2781 2195 2765C 2035 2746 1812 2735 1566 2735C 1319 2735 1096 2746 936 2765C 799 2781 715 2796 715 2806C 715 2815 799 2830 936 2846C 1096 2865 1319 2877 1566 2877zM2212 2917C 2046 2936 1817 2948 1566 2948C 1314 2948 1085 2936 919 2917C 729 2894 611 2855 611 2806C 611 2756 729 2717 919 2695C 1085 2675 1314 2663 1566 2663C 1817 2663 2046 2675 2212 2695C 2402 2717 2520 2756 2520 2806C 2520 2855 2402 2894 2212 2917z" stroke="none" fill="#1A1A1A" fill-rule="nonzero" />
            <path d="M1566 3136C 1945 3136 2288 3109 2535 3066C 2759 3027 2898 2982 2898 2940C 2898 2898 2759 2852 2535 2813C 2288 2770 1945 2744 1566 2744C 1186 2744 843 2770 596 2813C 372 2852 233 2898 233 2940C 233 2982 372 3027 596 3066C 843 3109 1186 3136 1566 3136zM2555 3154C 2301 3198 1951 3226 1566 3226C 1180 3226 830 3198 576 3154C 300 3106 128 3031 128 2940C 128 2849 300 2774 576 2726C 830 2681 1180 2654 1566 2654C 1951 2654 2301 2681 2555 2726C 2831 2774 3003 2849 3003 2940C 3003 3031 2831 3106 2555 3154z" stroke="none" fill="#1A1A1A" fill-rule="nonzero" />
            <path d="M1155 415C 1155 390.69946 1174.6995 371 1199 371L1199 371L1311 371C 1335.3005 371 1355 390.69946 1355 415L1355 415L1355 527C 1355 551.30054 1335.3005 571 1311 571L1311 571L1199 571C 1174.6995 571 1155 551.30054 1155 527L1155 527L1155 415z" stroke="none" fill="#1A1A1A" fill-rule="nonzero" />
            <path d="M1465 415C 1465 390.69946 1484.6995 371 1509 371L1509 371L1621 371C 1645.3005 371 1665 390.69946 1665 415L1665 415L1665 527C 1665 551.30054 1645.3005 571 1621 571L1621 571L1509 571C 1484.6995 571 1465 551.30054 1465 527L1465 527L1465 415z" stroke="none" fill="#1A1A1A" fill-rule="nonzero" />
            <path d="M1776 415C 1776 390.69946 1795.6995 371 1820 371L1820 371L1932 371C 1956.3005 371 1976 390.69946 1976 415L1976 415L1976 527C 1976 551.30054 1956.3005 571 1932 571L1932 571L1820 571C 1795.6995 571 1776 551.30054 1776 527L1776 527L1776 415z" stroke="none" fill="#1A1A1A" fill-rule="nonzero" />
            <path d="M652 908C 652 790.91565 670.804 696 694 696L694 696L775 696C 798.196 696 817 790.91565 817 908L817 908L817 1322C 817 1439.0844 798.196 1534 775 1534L775 1534L694 1534C 670.804 1534 652 1439.0844 652 1322L652 1322L652 908z" stroke="none" fill="#1A1A1A" fill-rule="nonzero" />
            <path d="M2313 908C 2313 790.91565 2331.804 696 2355 696L2355 696L2436 696C 2459.196 696 2478 790.91565 2478 908L2478 908L2478 1322C 2478 1439.0844 2459.196 1534 2436 1534L2436 1534L2355 1534C 2331.804 1534 2313 1439.0844 2313 1322L2313 1322L2313 908z" stroke="none" fill="#1A1A1A" fill-rule="nonzero" />
            <path d="M3131 1580C 3131.0002 1557.6326 3123.092 1538.5406 3107.2756 1522.7244C 3091.4595 1506.9082 3072.3677 1499 3050 1499C 3027.6326 1499 3008.5405 1506.9082 2992.7244 1522.7244C 2976.9082 1538.5406 2969 1557.6326 2969 1580C 2969 1602.3677 2976.9082 1621.4595 2992.7244 1637.2756C 3008.5405 1653.0919 3027.6326 1661 3050 1661C 3072.3677 1661 3091.4595 1653.0919 3107.2756 1637.2756C 3123.092 1621.4595 3131.0002 1602.3677 3131 1580" stroke="none" fill="#1A1A1A" fill-rule="nonzero" />
            <path d="M3050 1856C 3095 1856 3131 1892 3131 1937C 3131 1981 3095 2018 3050 2018C 3005 2018 2969 1981 2969 1937C 2969 1892 3005 1856 3050 1856z" stroke="none" fill="#1A1A1A" fill-rule="nonzero" fill-opacity="0.5019608" />
            <path d="M3131 866C 3131.0002 843.6325 3123.092 824.54065 3107.2756 808.72437C 3091.4595 792.9082 3072.3677 785.00006 3050 785C 3027.6326 785.00006 3008.5405 792.9082 2992.7244 808.72437C 2976.9082 824.54065 2969 843.6325 2969 866C 2969 888.36755 2976.9082 907.4594 2992.7244 923.27563C 3008.5405 939.0919 3027.6326 947.00006 3050 947C 3072.3677 947.00006 3091.4595 939.0919 3107.2756 923.27563C 3123.092 907.4594 3131.0002 888.36755 3131 866" stroke="none" fill="#1A1A1A" fill-rule="nonzero" />
            <path d="M3050 1142C 3095 1142 3131 1178 3131 1223C 3131 1268 3095 1304 3050 1304C 3005 1304 2969 1268 2969 1223C 2969 1178 3005 1142 3050 1142z" stroke="none" fill="#1A1A1A" fill-rule="nonzero" fill-opacity="0.5019608" />
            <path d="M3131 2307C 3131.0002 2284.6326 3123.092 2265.5408 3107.2756 2249.7244C 3091.4595 2233.9082 3072.3677 2226 3050 2226C 3027.6326 2226 3008.5405 2233.9082 2992.7244 2249.7244C 2976.9082 2265.5408 2969 2284.6326 2969 2307C 2969 2329.3677 2976.9082 2348.4595 2992.7244 2364.2756C 3008.5405 2380.0918 3027.6326 2388 3050 2388C 3072.3677 2388 3091.4595 2380.0918 3107.2756 2364.2756C 3123.092 2348.4595 3131.0002 2329.3677 3131 2307" stroke="none" fill="#1A1A1A" fill-rule="nonzero" />
            <path d="M162 1580C 162 1557.6326 154.09189 1538.5406 138.27565 1522.7244C 122.45943 1506.9082 103.36754 1499 81 1499C 58.63247 1499 39.540585 1506.9082 23.72435 1522.7244C 7.908117 1538.5406 0 1557.6326 0 1580C 0 1602.3677 7.908117 1621.4595 23.72435 1637.2756C 39.540585 1653.0919 58.63247 1661 81 1661C 103.36754 1661 122.45943 1653.0919 138.27565 1637.2756C 154.09189 1621.4595 162 1602.3677 162 1580" stroke="none" fill="#1A1A1A" fill-rule="nonzero" />
            <path d="M81 1856C 126 1856 162 1892 162 1937C 162 1981 126 2018 81 2018C 36 2018 0 1981 0 1937C 0 1892 36 1856 81 1856z" stroke="none" fill="#1A1A1A" fill-rule="nonzero" fill-opacity="0.5019608" />
            <path d="M162 866C 162 843.6325 154.09189 824.54065 138.27565 808.72437C 122.45943 792.9082 103.36754 785.00006 81 785C 58.63247 785.00006 39.540585 792.9082 23.72435 808.72437C 7.908117 824.54065 0 843.6325 0 866C 0 888.36755 7.908117 907.4594 23.72435 923.27563C 39.540585 939.0919 58.63247 947.00006 81 947C 103.36754 947.00006 122.45943 939.0919 138.27565 923.27563C 154.09189 907.4594 162 888.36755 162 866" stroke="none" fill="#1A1A1A" fill-rule="nonzero" />
            <path d="M81 1142C 126 1142 162 1178 162 1223C 162 1268 126 1304 81 1304C 36 1304 0 1268 0 1223C 0 1178 36 1142 81 1142z" stroke="none" fill="#1A1A1A" fill-rule="nonzero" fill-opacity="0.5019608" />
            <path d="M162 2307C 162 2284.6326 154.09189 2265.5408 138.27565 2249.7244C 122.45943 2233.9082 103.36754 2226 81 2226C 58.63247 2226 39.540585 2233.9082 23.72435 2249.7244C 7.908117 2265.5408 0 2284.6326 0 2307C 0 2329.3677 7.908117 2348.4595 23.72435 2364.2756C 39.540585 2380.0918 58.63247 2388 81 2388C 103.36754 2388 122.45943 2380.0918 138.27565 2364.2756C 154.09189 2348.4595 162 2329.3677 162 2307" stroke="none" fill="#1A1A1A" fill-rule="nonzero" />
		</g>
	</g>
</g>
</svg>